<svg width='24' height='24' viewBox='0 0 24 24' xmlns='http://www.w3.org/2000/svg' xmlns:xlink='http://www.w3.org/1999/xlink'>
<g transform="matrix(0.91 0 0 0.91 12 12)" >
<path style="stroke: #030303a6; stroke-width: 1; stroke-dasharray: none; stroke-linecap: butt; stroke-dashoffset: 0; stroke-linejoin: miter; stroke-miterlimit: 4; fill: #030303a6; fill-rule: nonzero; opacity: 1;" transform=" translate(-15.01, -15)" d="M 6 5 C 4.8954305003384135 5 4 5.8954305003384135 4 7 C 4 8.104569499661586 4.8954305003384135 9 6 9 C 7.1045694996615865 9 8 8.104569499661586 8 7 C 8 5.8954305003384135 7.1045694996615865 5 6 5 z M 12 6 C 11.63936408342243 5.994899710454515 11.303918635428394 6.184375296169332 11.122112278513482 6.495872849714331 C 10.940305921598572 6.80737040325933 10.940305921598572 7.192629596740671 11.122112278513484 7.504127150285671 C 11.303918635428394 7.815624703830669 11.639364083422432 8.005100289545485 12 8 L 25 8 C 25.360635916577568 8.005100289545485 25.696081364571608 7.815624703830668 25.877887721486516 7.50412715028567 C 26.059694078401428 7.19262959674067 26.059694078401428 6.80737040325933 25.877887721486516 6.495872849714331 C 25.696081364571608 6.184375296169332 25.360635916577568 5.994899710454515 25 6 L 12 6 z M 6 13 C 4.8954305003384135 13 4 13.895430500338414 4 15 C 4 16.104569499661586 4.8954305003384135 17 6 17 C 7.1045694996615865 17 8 16.104569499661586 8 15 C 8 13.895430500338414 7.1045694996615865 13 6 13 z M 12 14 C 11.63936408342243 13.994899710454515 11.303918635428394 14.184375296169332 11.122112278513482 14.495872849714331 C 10.940305921598572 14.80737040325933 10.940305921598572 15.192629596740671 11.122112278513484 15.50412715028567 C 11.303918635428394 15.815624703830668 11.639364083422432 16.005100289545485 12 16 L 25 16 C 25.360635916577568 16.005100289545485 25.696081364571608 15.815624703830668 25.877887721486516 15.504127150285669 C 26.059694078401428 15.192629596740671 26.059694078401428 14.80737040325933 25.877887721486516 14.495872849714331 C 25.696081364571608 14.184375296169332 25.360635916577568 13.994899710454515 25 14 L 12 14 z M 6 21 C 4.8954305003384135 21 4 21.895430500338414 4 23 C 4 24.104569499661586 4.8954305003384135 25 6 25 C 7.1045694996615865 25 8 24.104569499661586 8 23 C 8 21.895430500338414 7.1045694996615865 21 6 21 z M 12 22 C 11.63936408342243 21.994899710454515 11.303918635428394 22.184375296169332 11.122112278513482 22.49587284971433 C 10.940305921598572 22.80737040325933 10.940305921598572 23.192629596740673 11.122112278513484 23.50412715028567 C 11.303918635428394 23.815624703830668 11.639364083422432 24.005100289545485 12 24 L 25 24 C 25.360635916577568 24.005100289545485 25.696081364571608 23.815624703830668 25.877887721486516 23.50412715028567 C 26.059694078401428 23.19262959674067 26.059694078401428 22.80737040325933 25.877887721486516 22.49587284971433 C 25.696081364571608 22.184375296169332 25.360635916577568 21.994899710454515 25 22 L 12 22 z" stroke-linecap="round" />
</g>
</svg>