<svg viewBox="0 0 520 50" data-background-color="#ffffff" preserveAspectRatio="xMidYMid meet" xmlns="http://www.w3.org/2000/svg" xmlns:xlink="http://www.w3.org/1999/xlink">
<path d="M1.72 28 c0 2.7467 1.6533 5.06 4.96 6.94 s7.36 2.82 12.16 2.82 c4.7732 0 8.6668 -0.52 11.68 -1.56 c3.6267 -1.2533 5.44 -3.0933 5.44 -5.52 c0 -2.5333 -1.5467 -4.36 -4.64 -5.48 c-1.76 -0.64 -5.1868 -1.3067 -10.28 -2 l-3.96 -0.56 c-4.8268 -0.69332 -8.0268 -1.3066 -9.6 -1.84 c-2.3467 -0.8 -3.52 -1.96 -3.52 -3.48 c0 -1.44 1.3867 -2.6133 4.16 -3.52 s6.3468 -1.36 10.72 -1.36 c4.0268 0 7.5132 0.74668 10.46 2.24 s4.42 3.2666 4.42 5.32 l0 0 c0 0.74668 0.37332 1.12 1.12 1.12 s1.12 -0.37332 1.12 -1.12 l0 0 c0 -2.7467 -1.6533 -5.06 -4.96 -6.94 s-7.36 -2.82 -12.16 -2.82 c-4.7732 0 -8.6668 0.52 -11.68 1.56 c-3.6267 1.2533 -5.44 3.0933 -5.44 5.52 c0 2.5333 1.6133 4.3732 4.84 5.52 c1.5467 0.53332 4.96 1.2 10.24 2 l1.88 0.28 l2.04 0.28 c4.88 0.66668 8.12 1.28 9.72 1.84 c2.1867 0.74668 3.28 1.8934 3.28 3.44 c0 1.44 -1.3867 2.6133 -4.16 3.52 s-6.3468 1.36 -10.72 1.36 c-4.0268 0 -7.5132 -0.74668 -10.46 -2.24 s-4.42 -3.2666 -4.42 -5.32 l0 0 c0 -0.74668 -0.37332 -1.12 -1.12 -1.12 s-1.12 0.37332 -1.12 1.12 z M71.52000000000001 10.879999999999999 l-32 0 c-0.74668 0 -1.12 0.37332 -1.12 1.12 s0.37332 1.12 1.12 1.12 l14.88 0 l0 22.88 c0 0.74668 0.37332 1.12 1.12 1.12 s1.12 -0.37332 1.12 -1.12 l0 -22.88 l14.88 0 c0.74668 0 1.12 -0.37332 1.12 -1.12 s-0.37332 -1.12 -1.12 -1.12 z M108.80000000000001 35.08 l-8.96 -5.96 l0.32 0 c2.5333 0 4.6868 -0.89332 6.46 -2.68 s2.66 -3.9334 2.66 -6.44 c0 -2.5333 -0.88668 -4.6868 -2.66 -6.46 s-3.9266 -2.66 -6.46 -2.66 l-25.12 0 l0 25.12 c0 0.74668 0.37332 1.12 1.12 1.12 s1.12 -0.37332 1.12 -1.12 l0 -6.88 l18.56 0 l11.72 7.8 c0.18668 0.13332 0.38668 0.2 0.6 0.2 c0.4 0 0.70668 -0.17332 0.92 -0.52 c0.13332 -0.18668 0.2 -0.38668 0.2 -0.6 c0 -0.4 -0.16 -0.70668 -0.48 -0.92 z M77.28 13.120000000000001 l22.88 0 c1.8933 0 3.5133 0.67332 4.86 2.02 s2.02 2.9667 2.02 4.86 s-0.67332 3.5133 -2.02 4.86 s-2.9667 2.02 -4.86 2.02 l-22.88 0 l0 -13.76 z M129.88 10.440000000000001 c-4.8532 0 -9.0132 1.32 -12.48 3.96 c-3.5467 2.6933 -5.32 5.9732 -5.32 9.84 s1.7733 7.1468 5.32 9.84 c3.44 2.6133 7.6 3.92 12.48 3.92 s9.0268 -1.3067 12.44 -3.92 c3.5467 -2.72 5.32 -6 5.32 -9.84 s-1.7733 -7.12 -5.32 -9.84 c-3.4667 -2.64 -7.6132 -3.96 -12.44 -3.96 z M145.44 24.240000000000002 c0 3.1733 -1.52 5.8868 -4.56 8.14 s-6.7068 3.38 -11 3.38 s-7.96 -1.1267 -11 -3.38 s-4.56 -4.9668 -4.56 -8.14 c0 -3.2 1.52 -5.9268 4.56 -8.18 s6.7068 -3.38 11 -3.38 s7.96 1.1267 11 3.38 s4.56 4.98 4.56 8.18 z M150.36 12.239999999999998 l0 24 c0 0.72 0.36 1.08 1.08 1.08 c0.74668 0 1.12 -0.36 1.12 -1.08 l0 0 l0 -24 c0 -0.74668 -0.37332 -1.12 -1.12 -1.12 c-0.72 0 -1.08 0.37332 -1.08 1.12 z M172.68 34.2 l-17.12 -25.64 l0 27.68 c0 0.72 0.37332 1.08 1.12 1.08 c0.72 0 1.08 -0.36 1.08 -1.08 l0 -20.36 l14.92 22.36 l14.88 -22.36 l0 20.36 c0 0.72 0.37332 1.08 1.12 1.08 c0.72 0 1.08 -0.36 1.08 -1.08 l0 -27.68 z M237.16000000000003 35.44 l-14.92 -14.92 l14.64 -7.32 c0.4 -0.18668 0.6 -0.50668 0.6 -0.96 c0 -0.42668 -0.17332 -0.74668 -0.52 -0.96 s-0.70668 -0.22664 -1.08 -0.039961 l-30.4 15.2 l0 -14.2 c0 -0.74668 -0.37332 -1.12 -1.12 -1.12 s-1.12 0.37332 -1.12 1.12 l0 24 c0 0.72 0.37332 1.08 1.12 1.08 s1.12 -0.36 1.12 -1.08 l0 -7.32 l14.68 -7.36 l15.4 15.44 c0.21332 0.21332 0.48 0.32 0.8 0.32 c0.74668 0 1.12 -0.37332 1.12 -1.12 c0 -0.29332 -0.10668 -0.54664 -0.32 -0.75996 z M282.56 35.28 l-21.52 -25 l-20.84 25 c-0.16 0.18668 -0.24 0.41336 -0.24 0.68004 c0 0.77332 0.38668 1.16 1.16 1.16 c0.32 0 0.58668 -0.13332 0.8 -0.4 l0 0 l6.32 -7.6 l26.08 0 l6.56 7.6 c0.24 0.26668 0.53332 0.4 0.88 0.4 c0.72 0 1.08 -0.36 1.08 -1.08 c0 -0.29332 -0.09332 -0.54664 -0.28 -0.75996 z M250.12 26.880000000000003 l10.96 -13.16 l11.36 13.16 l-22.32 0 z M319.72 35.44 l-14.92 -14.92 l14.64 -7.32 c0.4 -0.18668 0.6 -0.50668 0.6 -0.96 c0 -0.42668 -0.17332 -0.74668 -0.52 -0.96 s-0.70668 -0.22664 -1.08 -0.039961 l-30.4 15.2 l0 -14.2 c0 -0.74668 -0.37332 -1.12 -1.12 -1.12 s-1.12 0.37332 -1.12 1.12 l0 24 c0 0.72 0.37332 1.08 1.12 1.08 s1.12 -0.36 1.12 -1.08 l0 -7.32 l14.68 -7.36 l15.4 15.44 c0.21332 0.21332 0.48 0.32 0.8 0.32 c0.74668 0 1.12 -0.37332 1.12 -1.12 c0 -0.29332 -0.10668 -0.54664 -0.32 -0.75996 z M350.36 34.2 l-17.12 -25.64 l0 27.68 c0 0.72 0.37332 1.08 1.12 1.08 c0.72 0 1.08 -0.36 1.08 -1.08 l0 -20.36 l14.92 22.36 l14.88 -22.36 l0 20.36 c0 0.72 0.37332 1.08 1.12 1.08 c0.72 0 1.08 -0.36 1.08 -1.08 l0 -27.68 z M387.48 10.440000000000001 c-4.8532 0 -9.0132 1.32 -12.48 3.96 c-3.5467 2.6933 -5.32 5.9732 -5.32 9.84 s1.7733 7.1468 5.32 9.84 c3.44 2.6133 7.6 3.92 12.48 3.92 s9.0268 -1.3067 12.44 -3.92 c3.5467 -2.72 5.32 -6 5.32 -9.84 s-1.7733 -7.12 -5.32 -9.84 c-3.4667 -2.64 -7.6132 -3.96 -12.44 -3.96 z M403.04 24.240000000000002 c0 3.1733 -1.52 5.8868 -4.56 8.14 s-6.7068 3.38 -11 3.38 s-7.96 -1.1267 -11 -3.38 s-4.56 -4.9668 -4.56 -8.14 c0 -3.2 1.52 -5.9268 4.56 -8.18 s6.7068 -3.38 11 -3.38 s7.96 1.1267 11 3.38 s4.56 4.98 4.56 8.18 z M407.48 27.759999999999998 c0 3.7333 1.9334 6.48 5.8 8.24 c2.9333 1.3333 6.6932 2 11.28 2 c4.6132 0 8.3868 -0.66668 11.32 -2 c3.8667 -1.76 5.8 -4.5068 5.8 -8.24 l0 -15.52 c0 -0.74668 -0.37332 -1.12 -1.12 -1.12 c-0.72 0 -1.08 0.37332 -1.08 1.12 l0 0 l0 15.52 c0 3.1467 -1.92 5.3868 -5.76 6.72 c-2.5067 0.85332 -5.56 1.28 -9.16 1.28 s-6.64 -0.42668 -9.12 -1.28 c-3.84 -1.3333 -5.76 -3.5733 -5.76 -6.72 l0 0 c0 -0.72 -0.37332 -1.08 -1.12 -1.08 c-0.72 0 -1.08 0.36 -1.08 1.08 z M477.56 25.119999999999997 c0.74668 0 1.12 -0.37332 1.12 -1.12 s-0.37332 -1.12 -1.12 -1.12 l-30.88 0 l0 -9.76 l30.88 0 c0.74668 0 1.12 -0.37332 1.12 -1.12 s-0.37332 -1.12 -1.12 -1.12 l-33.12 0 l0 26.24 l33.12 0 c0.74668 0 1.12 -0.37332 1.12 -1.12 s-0.37332 -1.12 -1.12 -1.12 l-30.88 0 l0 -9.76 l30.88 0 z M498.4 34.2 l-17.12 -25.64 l0 27.68 c0 0.72 0.37332 1.08 1.12 1.08 c0.72 0 1.08 -0.36 1.08 -1.08 l0 -20.36 l14.92 22.36 l14.88 -22.36 l0 20.36 c0 0.72 0.37332 1.08 1.12 1.08 c0.72 0 1.08 -0.36 1.08 -1.08 l0 -27.68 z"></path></svg>