<svg xmlns="http://www.w3.org/2000/svg" viewBox="0 0 24 24"><path d="M16.62,2.75H7.38c-2.59,0-4.62,2.04-4.62,4.62v9.25c0,2.59,2.04,4.62,4.62,4.62h9.25c2.59,0,4.62-2.04,4.62-4.62V7.38c0-2.59-2.04-4.62-4.62-4.62Zm2.77,13.88c0,1.57-1.2,2.78-2.77,2.78H7.38c-1.57,0-2.78-1.2-2.78-2.78V7.38c0-1.57,1.2-2.78,2.78-2.78h9.25c1.57,0,2.77,1.2,2.77,2.78v9.25ZM12,7.38c-2.59,0-4.62,2.03-4.62,4.62s2.03,4.62,4.62,4.62,4.62-2.03,4.62-4.62-2.03-4.62-4.62-4.62Zm0,7.4c-1.57,0-2.78-1.2-2.78-2.78s1.2-2.78,2.78-2.78,2.78,1.2,2.78,2.78-1.2,2.78-2.78,2.78Zm4.62-8.33c.51,0,.93,.41,.93,.93s-.41,.93-.93,.93-.93-.41-.93-.93,.41-.93,.93-.93Z"></path></svg>