<svg xmlns="http://www.w3.org/2000/svg" viewBox="0 0 24 24"><path d="M19.92,13.03c-.39-.49-.28-.71,0-1.15,0,0,3.21-4.43,3.54-5.93h0c.16-.55,0-.95-.79-.95h-2.62c-.67,0-.98,.35-1.14,.73,0,0-1.34,3.2-3.23,5.27-.61,.6-.89,.79-1.23,.79-.16,0-.42-.19-.42-.74V5.95c0-.66-.19-.95-.74-.95h-4.13c-.42,0-.67,.31-.67,.59,0,.62,.95,.77,1.04,2.52v3.8c0,.83-.15,.99-.49,.99-.89,0-3.06-3.21-4.34-6.89-.26-.71-.51-1-1.19-1H.9c-.75,0-.9,.35-.9,.73,0,.68,.89,4.07,4.15,8.55,2.17,3.06,5.23,4.72,8.01,4.72,1.67,0,1.88-.37,1.88-1,0-2.92-.15-3.2,.69-3.2,.39,0,1.06,.19,2.62,1.67,1.78,1.75,2.08,2.53,3.07,2.53h2.62c.75,0,1.13-.37,.91-1.09-.5-1.53-3.87-4.67-4.02-4.88Z"></path></svg>