<svg width="21" height="20" viewBox="0 0 21 20" fill="none" xmlns="http://www.w3.org/2000/svg">
<path d="M17.141 15.6928L17.1403 15.6928L7.51037 15.6928H7.51029V15.6428C7.09774 15.6435 6.69815 15.4894 6.38171 15.2076C6.06526 14.9258 5.85221 14.5343 5.77997 14.1019L17.141 15.6928ZM17.141 15.6928C17.5534 15.6863 17.9511 15.5309 18.2689 15.2528C18.5867 14.9748 18.8059 14.5906 18.8913 14.1635C18.8913 14.1634 18.8913 14.1634 18.8913 14.1633L20.5083 6.41626L20.5084 6.41611C20.566 6.13581 20.5639 5.84535 20.5021 5.56604C20.4404 5.28672 20.3205 5.02549 20.1513 4.8016C19.982 4.5777 19.7675 4.3968 19.5235 4.27242C19.2794 4.14803 19.0121 4.0834 18.7412 4.08344H5.31603L4.96795 2.20466L4.96793 2.20452C4.90162 1.85244 4.723 1.53497 4.46157 1.30614C4.20007 1.07725 3.87181 0.951186 3.53228 0.95H3.53211H1.10642C0.931281 0.95 0.763998 1.0241 0.641172 1.15487C0.518445 1.28553 0.45 1.46211 0.45 1.64562C0.45 1.82914 0.518445 2.00572 0.641172 2.13638C0.763998 2.26715 0.931281 2.34125 1.10642 2.34125H3.53211H3.53212C3.56632 2.34124 3.59992 2.35379 3.62718 2.37748C3.65448 2.40121 3.67376 2.43473 3.68107 2.4727C3.68108 2.47274 3.68109 2.47278 3.6811 2.47283L4.62064 7.54401L5.73065 14.1101L17.141 15.6928ZM6.02309 7.95213C6.02222 7.91274 6.01819 7.87339 6.011 7.83452L6.011 7.83451L5.92303 7.35968L5.60465 5.47477L18.7573 5.49191H18.7574C18.8311 5.49182 18.904 5.50933 18.9707 5.5433C19.0375 5.57728 19.0965 5.62692 19.1433 5.68879C19.1901 5.75067 19.2233 5.82315 19.2405 5.90093C19.2576 5.97871 19.2582 6.05963 19.2421 6.13767L17.625 13.8851L17.6249 13.8854C17.601 14.0047 17.5392 14.1109 17.4508 14.1865C17.3625 14.262 17.2529 14.3024 17.1406 14.3015H17.1403H7.51029H7.51023C7.39483 14.3017 7.28258 14.2586 7.19318 14.1792C7.10371 14.0997 7.04282 13.9887 7.02189 13.8654L6.02309 7.95213ZM9.42214 18.4527C9.5605 18.2322 9.63419 17.9734 9.63419 17.7088C9.63419 17.354 9.50185 17.0132 9.2654 16.7615C9.02885 16.5096 8.70732 16.3675 8.37135 16.3675C8.12086 16.3675 7.87628 16.4466 7.66854 16.5944C7.46086 16.7421 7.29944 16.9518 7.20423 17.1965C7.10903 17.4412 7.08416 17.7103 7.13266 17.9698C7.18116 18.2294 7.30094 18.4683 7.47729 18.656C7.65368 18.8438 7.8788 18.9721 8.12437 19.0241C8.36998 19.0761 8.62452 19.0494 8.85566 18.9475C9.08675 18.8455 9.28376 18.6732 9.42214 18.4527ZM17.3865 18.4527C17.5248 18.2322 17.5985 17.9734 17.5985 17.7088C17.5985 17.354 17.4662 17.0132 17.2297 16.7615C16.9932 16.5096 16.6716 16.3675 16.3357 16.3675C16.0852 16.3675 15.8406 16.4466 15.6329 16.5944C15.4252 16.7421 15.2638 16.9518 15.1686 17.1965C15.0734 17.4412 15.0485 17.7103 15.097 17.9698C15.1455 18.2294 15.2653 18.4683 15.4416 18.656C15.618 18.8438 15.8431 18.9721 16.0887 19.0241C16.3343 19.0761 16.5888 19.0494 16.82 18.9475C17.0511 18.8455 17.2481 18.6732 17.3865 18.4527Z" fill="white" stroke="#20232C" stroke-width="0.1"/>
</svg>
