<svg width="20" height="20" viewBox="0 0 20 20" fill="none" xmlns="http://www.w3.org/2000/svg">
<path d="M15.8147 12.3891C15.4047 11.9628 14.9101 11.7348 14.3859 11.7348C13.866 11.7348 13.3671 11.9586 12.9402 12.3849L11.6044 13.7146C11.4945 13.6555 11.3846 13.6006 11.2789 13.5457C11.1267 13.4698 10.983 13.398 10.8604 13.322C9.6091 12.5284 8.47196 11.4942 7.38132 10.1561C6.85291 9.48915 6.49782 8.92773 6.23995 8.35787C6.58659 8.04128 6.90786 7.71203 7.22068 7.39544C7.33905 7.27724 7.45741 7.15483 7.57577 7.03663C8.4635 6.15018 8.4635 5.00201 7.57577 4.11556L6.42173 2.96317C6.29068 2.83231 6.15541 2.69723 6.02859 2.56216C5.77495 2.30044 5.50863 2.03028 5.23386 1.77701C4.82381 1.37178 4.33345 1.15649 3.81772 1.15649C3.30199 1.15649 2.80317 1.37178 2.38045 1.77701C2.37622 1.78123 2.37622 1.78123 2.37199 1.78545L0.934715 3.23333C0.393623 3.77364 0.0850311 4.43215 0.0173946 5.19619C-0.0840601 6.42878 0.279486 7.57695 0.558487 8.32832C1.24331 10.173 2.26631 11.8826 3.79236 13.7146C5.64391 15.9223 7.87168 17.6656 10.4165 18.894C11.3888 19.3541 12.6866 19.8986 14.1365 19.9915C14.2253 19.9957 14.3183 20 14.4028 20C15.3793 20 16.1994 19.6496 16.842 18.9531C16.8462 18.9447 16.8547 18.9404 16.8589 18.932C17.0787 18.6661 17.3323 18.4254 17.5987 18.168C17.7804 17.9949 17.9664 17.8134 18.1482 17.6234C18.5667 17.1886 18.7865 16.6821 18.7865 16.1629C18.7865 15.6395 18.5625 15.1371 18.1355 14.715L15.8147 12.3891ZM17.3281 16.8341C17.3239 16.8341 17.3239 16.8383 17.3281 16.8341C17.1632 17.0113 16.9942 17.1717 16.8124 17.349C16.5376 17.6108 16.2586 17.8851 15.9965 18.1933C15.5696 18.6492 15.0665 18.8645 14.4071 18.8645C14.3437 18.8645 14.276 18.8645 14.2126 18.8602C12.9571 18.78 11.7904 18.2904 10.9153 17.8725C8.52269 16.7159 6.42173 15.0738 4.67586 12.9928C3.23436 11.2578 2.27054 9.65378 1.63222 7.93153C1.23908 6.88045 1.09535 6.06154 1.15876 5.28905C1.20103 4.79517 1.39126 4.38572 1.74213 4.03536L3.18363 2.59593C3.39077 2.40175 3.61058 2.29622 3.82618 2.29622C4.09249 2.29622 4.30809 2.45663 4.44336 2.5917C4.44759 2.59593 4.45181 2.60015 4.45604 2.60437C4.7139 2.84498 4.95909 3.09403 5.21695 3.35996C5.348 3.49504 5.48327 3.63012 5.61854 3.76942L6.77259 4.92181C7.22068 5.36926 7.22068 5.78294 6.77259 6.23038C6.65 6.3528 6.53163 6.47521 6.40904 6.59341C6.05395 6.95643 5.71577 7.29413 5.348 7.62338C5.33954 7.63182 5.33109 7.63604 5.32686 7.64449C4.96331 8.00751 5.03095 8.36209 5.10704 8.6027C5.11127 8.61536 5.1155 8.62803 5.11972 8.64069C5.41986 9.36674 5.84259 10.0506 6.48514 10.8653L6.48936 10.8695C7.65609 12.3047 8.88623 13.4233 10.2432 14.2802C10.4165 14.39 10.5941 14.4786 10.7631 14.563C10.9153 14.639 11.0591 14.7108 11.1816 14.7868C11.1986 14.7952 11.2155 14.8079 11.2324 14.8163C11.3761 14.8881 11.5114 14.9218 11.6509 14.9218C12.0017 14.9218 12.2216 14.7023 12.2934 14.6306L13.7391 13.1869C13.8829 13.0434 14.1112 12.8703 14.3775 12.8703C14.6396 12.8703 14.8552 13.035 14.9862 13.1785C14.9904 13.1827 14.9904 13.1827 14.9947 13.1869L17.3239 15.5128C17.7593 15.9434 17.7593 16.3866 17.3281 16.8341Z" fill="#D32424"/>
<path d="M10.8096 4.75803C11.9171 4.94377 12.9232 5.4672 13.7264 6.26922C14.5296 7.07125 15.0496 8.0759 15.2398 9.18186C15.2863 9.46046 15.5272 9.65463 15.802 9.65463C15.8358 9.65463 15.8654 9.65041 15.8992 9.64619C16.2121 9.59553 16.4192 9.30005 16.3685 8.98768C16.1402 7.64956 15.5061 6.42963 14.5381 5.46297C13.57 4.49632 12.3483 3.86314 11.0083 3.63519C10.6955 3.58454 10.4038 3.79138 10.3488 4.09953C10.2939 4.40767 10.4968 4.70738 10.8096 4.75803Z" fill="#D32424"/>
<path d="M19.9914 8.82256C19.6152 6.61909 18.5752 4.61402 16.9773 3.01841C15.3794 1.42279 13.3715 0.384375 11.1648 0.00868786C10.8562 -0.0461878 10.5645 0.164872 10.5096 0.47302C10.4589 0.78539 10.666 1.07665 10.9788 1.13153C12.9487 1.465 14.7453 2.39789 16.1741 3.82044C17.603 5.2472 18.533 7.04122 18.8669 9.0083C18.9134 9.2869 19.1544 9.48107 19.4292 9.48107C19.463 9.48107 19.4926 9.47685 19.5264 9.47263C19.835 9.4262 20.0463 9.13071 19.9914 8.82256Z" fill="#D32424"/>
</svg>
