<svg width="22" height="20" viewBox="0 0 22 20" fill="none" xmlns="http://www.w3.org/2000/svg">
<path d="M11 2.9863C10.6327 2.45475 10.2178 1.99677 9.7614 1.61974L9.72955 1.65829L9.76139 1.61974C8.82224 0.84415 7.75382 0.45 6.58716 0.45C5.02755 0.45 3.59329 1.11702 2.54876 2.32672L2.54876 2.32672C1.51686 3.52192 0.95 5.15287 0.95 6.91811C0.95 8.73762 1.58559 10.4014 2.94414 12.1519C4.15769 13.7154 5.90077 15.3015 7.91398 17.1335L7.91513 17.1345L7.91551 17.1349L7.91864 17.1378L7.91902 17.1381C8.60629 17.7635 9.38503 18.4722 10.1927 19.2263C10.4156 19.4348 10.7022 19.55 11 19.55C11.2976 19.55 11.5844 19.4348 11.8071 19.2266C12.6167 18.4707 13.3966 17.7609 14.0851 17.1345L14.0515 17.0975L14.0851 17.1345L14.0882 17.1317C16.1005 15.3005 17.8428 13.715 19.056 12.1517C20.4146 10.4014 21.05 8.73762 21.05 6.91811C21.05 5.15287 20.4833 3.52193 19.4514 2.32672L19.4135 2.3594L19.4514 2.32672C18.4069 1.11702 16.9724 0.45 15.413 0.45C14.2463 0.45 13.1779 0.84415 12.2388 1.61974C11.7822 1.99678 11.3675 2.45476 11 2.9863ZM6.58716 1.801C7.46373 1.801 8.2688 2.0983 8.98101 2.68634C9.61677 3.21137 10.0606 3.87614 10.3211 4.34257L10.3211 4.34258C10.4643 4.59869 10.7179 4.75352 11 4.75352C11.2821 4.75352 11.5357 4.59869 11.6789 4.34258C11.9396 3.87614 12.3834 3.21137 13.019 2.68634C13.7312 2.0983 14.5363 1.801 15.413 1.801C16.6115 1.801 17.7127 2.31155 18.5143 3.23998C19.3284 4.18293 19.7786 5.48861 19.7786 6.91811C19.7786 8.42332 19.2554 9.77137 18.0751 11.2924C16.933 12.764 15.2335 14.3106 13.2602 16.1064L13.2579 16.1085C12.5763 16.7286 11.805 17.4305 10.9984 18.1802C10.1965 17.4319 9.42641 16.7311 8.74621 16.1121L8.74579 16.1118L8.74255 16.1089C8.74248 16.1088 8.74241 16.1087 8.74234 16.1087C6.76801 14.312 5.06759 12.7645 3.92509 11.2924C2.74456 9.77137 2.22142 8.42332 2.22142 6.91811C2.22142 5.48861 2.67156 4.18293 3.48566 3.23998C4.28741 2.31155 5.38853 1.801 6.58716 1.801Z" fill="white" stroke="#20232C" stroke-width="0.1"/>
</svg>
