<svg width="25" height="24" viewBox="0 0 25 24" fill="none" xmlns="http://www.w3.org/2000/svg">
<path fill-rule="evenodd" clip-rule="evenodd" d="M17.8451 1.32061C16.9807 1.24999 15.9053 1.25 14.5336 1.25H10.4664C9.09472 1.25 8.01929 1.24999 7.15494 1.32061C6.27479 1.39252 5.54769 1.54138 4.88955 1.87671C3.80762 2.42798 2.92798 3.30762 2.37671 4.38955C2.04138 5.04769 1.89252 5.7748 1.82061 6.65494C1.74999 7.51929 1.75 8.59472 1.75 9.96644V14.2283C1.75 16.7256 3.77441 18.75 6.27166 18.75H6.87341C7.12191 18.75 7.29183 19.001 7.19954 19.2317C6.51288 20.9484 8.4899 22.5003 9.99441 21.4257L12.6051 19.5609L12.6543 19.5259C13.3632 19.0264 14.2079 18.7556 15.0751 18.7501L15.1354 18.75L15.8311 18.75C17.3797 18.7502 18.3244 18.7504 19.1179 18.5177C20.9971 17.9667 22.4667 16.4971 23.0177 14.6179C23.2504 13.8244 23.2502 12.8798 23.25 11.3312L23.25 9.96642C23.25 8.59473 23.25 7.51927 23.1794 6.65494C23.1075 5.77479 22.9586 5.04769 22.6233 4.38955C22.072 3.30762 21.1924 2.42798 20.1104 1.87671C19.4523 1.54138 18.7252 1.39252 17.8451 1.32061ZM5.57054 3.21322C5.98197 3.00359 6.4897 2.87996 7.27708 2.81563C8.07322 2.75058 9.08749 2.75 10.5 2.75H14.5C15.9125 2.75 16.9268 2.75058 17.7229 2.81563C18.5103 2.87996 19.018 3.00359 19.4295 3.21322C20.2291 3.62068 20.8793 4.27085 21.2868 5.07054C21.4964 5.48197 21.62 5.9897 21.6844 6.77708C21.7494 7.57322 21.75 8.58749 21.75 10V11.1842C21.75 12.9261 21.7424 13.6363 21.5783 14.1958C21.171 15.5848 20.0848 16.671 18.6958 17.0783C18.1363 17.2424 17.4261 17.25 15.6842 17.25H15.1354L15.0655 17.2501C13.8922 17.2576 12.7493 17.6239 11.7902 18.2997L11.7333 18.3403L9.12255 20.2051C8.83709 20.409 8.46197 20.1145 8.59226 19.7888C9.07867 18.5728 8.18311 17.25 6.87341 17.25H6.27166C4.60284 17.25 3.25 15.8972 3.25 14.2283V10C3.25 8.58749 3.25058 7.57322 3.31563 6.77708C3.37996 5.9897 3.50359 5.48197 3.71322 5.07054C4.12068 4.27085 4.77085 3.62068 5.57054 3.21322Z" fill="#D32424"/>
<path d="M9.5 10C9.5 10.5523 9.05228 11 8.5 11C7.94772 11 7.5 10.5523 7.5 10C7.5 9.44772 7.94772 9 8.5 9C9.05228 9 9.5 9.44772 9.5 10Z" fill="#D32424"/>
<path d="M13.5 10C13.5 10.5523 13.0523 11 12.5 11C11.9477 11 11.5 10.5523 11.5 10C11.5 9.44772 11.9477 9 12.5 9C13.0523 9 13.5 9.44772 13.5 10Z" fill="#D32424"/>
<path d="M17.5 10C17.5 10.5523 17.0523 11 16.5 11C15.9477 11 15.5 10.5523 15.5 10C15.5 9.44772 15.9477 9 16.5 9C17.0523 9 17.5 9.44772 17.5 10Z" fill="#D32424"/>
</svg>
