<svg width="25" height="24" viewBox="0 0 25 24" fill="none" xmlns="http://www.w3.org/2000/svg">
<path fill-rule="evenodd" clip-rule="evenodd" d="M17.9635 2.37373C16.8214 2.24999 15.3818 2.24999 13.5452 2.25H11.4548C9.61821 2.24999 8.17861 2.24999 7.03648 2.37373C5.87094 2.50001 4.92656 2.76232 4.12024 3.34815C3.63209 3.70281 3.20281 4.13209 2.84815 4.62024C2.68647 4.84277 2.54801 5.07781 2.42987 5.32797C2.06808 6.09404 1.90671 6.98237 1.82806 8.04168C1.75 9.09323 1.75 10.3822 1.75 11.9716V12.0452C1.74999 13.8818 1.74999 15.3214 1.87373 16.4635C2.00001 17.6291 2.26232 18.5734 2.84815 19.3798C3.20281 19.8679 3.63209 20.2972 4.12024 20.6518C4.92656 21.2377 5.87094 21.5 7.03648 21.6263C8.17859 21.75 9.61817 21.75 11.4547 21.75H13.5453C15.3818 21.75 16.8214 21.75 17.9635 21.6263C19.1291 21.5 20.0734 21.2377 20.8798 20.6518C21.3679 20.2972 21.7972 19.8679 22.1518 19.3798C22.7377 18.5734 23 17.6291 23.1263 16.4635C23.25 15.3214 23.25 13.8818 23.25 12.0453V11.9709C23.25 10.3707 23.25 9.07486 23.1702 8.01904C23.0899 6.95506 22.9248 6.06379 22.5546 5.29546C22.4399 5.05734 22.3065 4.83304 22.1518 4.62024C21.7972 4.13209 21.3679 3.70281 20.8798 3.34815C20.0734 2.76232 19.1291 2.50001 17.9635 2.37373ZM5.00191 4.56168C5.50992 4.19259 6.16013 3.97745 7.19804 3.865C8.24999 3.75103 9.60843 3.75 11.5 3.75H13.5C15.3916 3.75 16.75 3.75103 17.802 3.865C18.8399 3.97745 19.4901 4.19259 19.9981 4.56168C20.3587 4.82369 20.6759 5.14081 20.9379 5.50139L19.0407 7.39861C17.3591 9.08026 16.1501 10.287 15.1072 11.0827C14.0817 11.8651 13.3056 12.1789 12.5 12.1789C11.6944 12.1789 10.9183 11.8651 9.89275 11.0827C8.84994 10.287 7.64092 9.08026 5.95926 7.3986L4.06205 5.50139C4.32412 5.14081 4.64128 4.82369 5.00191 4.56168ZM21.5373 7.02337C21.5977 7.34361 21.6425 7.70891 21.6745 8.13204C21.7495 9.12493 21.75 10.3648 21.75 12C21.75 13.8916 21.749 15.25 21.635 16.302C21.5225 17.3399 21.3074 17.9901 20.9383 18.4981C20.6762 18.8589 20.3589 19.1762 19.9981 19.4383C19.4901 19.8074 18.8399 20.0225 17.802 20.135C16.75 20.249 15.3916 20.25 13.5 20.25H11.5C9.60843 20.25 8.24999 20.249 7.19804 20.135C6.16013 20.0225 5.50992 19.8074 5.00191 19.4383C4.64111 19.1762 4.32382 18.8589 4.06168 18.4981C3.69259 17.9901 3.47745 17.3399 3.365 16.302C3.25103 15.25 3.25 13.8916 3.25 12C3.25 10.3764 3.25047 9.14244 3.32395 8.15274C3.35601 7.72084 3.40131 7.34885 3.46271 7.02337L4.93917 8.49983C6.57144 10.1321 7.85062 11.4113 8.98288 12.2752C10.1418 13.1594 11.2345 13.6789 12.5 13.6789C13.7655 13.6789 14.8582 13.1594 16.0171 12.2752C17.1494 11.4113 18.4285 10.1321 20.0608 8.49986L21.5373 7.02337Z" fill="#D32424"/>
</svg>
