<svg width="16" height="16" viewBox="0 0 16 16" fill="none" xmlns="http://www.w3.org/2000/svg">
<path d="M10.5613 8.39408C11.6655 7.597 12.3859 6.29916 12.3859 4.83594C12.3859 2.41749 10.4184 0.45 8 0.45C5.58156 0.45 3.61406 2.41749 3.61406 4.83594C3.61406 6.29916 4.33449 7.597 5.43876 8.39408C4.40638 8.76542 3.46 9.36271 2.66135 10.1613C1.23541 11.5873 0.45 13.4834 0.45 15.5V15.55H0.5H1.67188H1.72187V15.5C1.72187 12.0383 4.53827 9.22188 8 9.22188C11.4617 9.22188 14.2781 12.0383 14.2781 15.5V15.55H14.3281H15.5H15.55V15.5C15.55 13.4834 14.7646 11.5873 13.3387 10.1613C12.54 9.36271 11.5936 8.76542 10.5613 8.39408ZM8 7.95C6.28296 7.95 4.88594 6.55301 4.88594 4.83594C4.88594 3.11886 6.28296 1.72187 8 1.72187C9.71704 1.72187 11.1141 3.11886 11.1141 4.83594C11.1141 6.55301 9.71704 7.95 8 7.95Z" fill="#20232C" stroke="#20232C" stroke-width="0.1"/>
</svg>
