<svg width="19" height="12" viewBox="0 0 19 12" fill="none" xmlns="http://www.w3.org/2000/svg">
<path fill-rule="evenodd" clip-rule="evenodd" d="M19 1.125C19 0.50368 18.5274 0 17.9445 0H16.8889C16.306 0 15.8334 0.50368 15.8334 1.125V10.875C15.8334 11.4963 16.306 12 16.8889 12H17.9445C18.5274 12 19 11.4963 19 10.875V1.125ZM11.6427 2.40039H12.6982C13.2812 2.40039 13.7538 2.91616 13.7538 3.55239V10.8484C13.7538 11.4846 13.2812 12.0004 12.6982 12.0004H11.6427C11.0597 12.0004 10.5871 11.4846 10.5871 10.8484V3.55239C10.5871 2.91616 11.0597 2.40039 11.6427 2.40039ZM7.35713 5H6.30157C5.71861 5 5.24602 5.52233 5.24602 6.16667V10.8333C5.24602 11.4777 5.71861 12 6.30157 12H7.35713C7.9401 12 8.41268 11.4777 8.41268 10.8333V6.16667C8.41268 5.52233 7.9401 5 7.35713 5ZM2.11087 7.40039H1.05531C0.472344 7.40039 -0.000244141 7.91526 -0.000244141 8.55039V10.8504C-0.000244141 11.4855 0.472344 12.0004 1.05531 12.0004H2.11087C2.69383 12.0004 3.16642 11.4855 3.16642 10.8504V8.55039C3.16642 7.91526 2.69383 7.40039 2.11087 7.40039Z" fill="#181818"/>
</svg>
