<svg width="51" height="50" viewBox="0 0 51 50" fill="none" xmlns="http://www.w3.org/2000/svg">
<path d="M19.5445 37.3093L19.5445 37.3093L19.548 37.3123C20.7852 38.3656 22.1851 39.5577 23.6368 40.8259C24.1064 41.2369 24.7089 41.463 25.3333 41.463C25.9574 41.463 26.5602 41.2369 27.0295 40.8266C28.4845 39.5553 29.8867 38.3612 31.126 37.3063L31.1261 37.3063L31.1539 37.2826C34.7582 34.2136 37.9147 31.5259 40.1194 28.8679C42.6063 25.87 43.7963 22.9844 43.7963 19.8095C43.7963 16.7489 42.7457 13.9069 40.818 11.8177L40.4777 12.1316L40.818 11.8176C38.8656 9.702 36.1843 8.53704 33.2767 8.53704C31.0942 8.53704 29.0919 9.22869 27.3374 10.5845C26.6082 11.1478 25.9383 11.8133 25.3334 12.5716C24.7286 11.8133 24.0585 11.1478 23.3296 10.5845L23.3296 10.5845C21.5751 9.22869 19.5728 8.53704 17.3902 8.53704C14.4823 8.53704 11.8014 9.70201 9.84901 11.8176L9.84899 11.8177C7.92125 13.9069 6.87038 16.7488 6.87038 19.8095C6.87038 22.9845 8.06072 25.87 10.5476 28.8682L10.5476 28.8682C12.7528 31.5267 15.9107 34.2153 19.5168 37.2856L19.5382 37.3038L19.5417 37.3068L19.5445 37.3093ZM12.8837 26.9327L12.8837 26.9327C10.7974 24.4176 9.90486 22.2305 9.90486 19.8095C9.90486 17.4873 10.6859 15.3841 12.0797 13.8736C13.4504 12.3885 15.3329 11.5699 17.3902 11.5699C18.885 11.5699 20.2551 12.0425 21.4734 12.9837C22.5669 13.8286 23.3369 14.9049 23.7924 15.668L23.7925 15.6681C24.1188 16.2143 24.6971 16.5426 25.3333 16.5426C25.9696 16.5426 26.5479 16.2143 26.8742 15.6681L26.4767 15.4306L26.8742 15.6681C27.3301 14.905 28.1001 13.8286 29.1933 12.9837C30.4116 12.0425 31.7817 11.5699 33.2767 11.5699C35.3338 11.5699 37.2166 12.3885 38.587 13.8736C39.9807 15.3841 40.7618 17.4873 40.7618 19.8095C40.7618 22.2305 39.8693 24.4176 37.7832 26.9327C35.7522 29.3813 32.7209 31.964 29.158 34.9979C27.9997 35.9837 26.6963 37.0936 25.3309 38.2784C23.9729 37.0959 22.6716 35.9878 21.5161 35.0039L21.5161 35.0039L21.5121 35.0006L21.5095 34.9984C21.5088 34.9978 21.5082 34.9973 21.5075 34.9967C17.9453 31.9636 14.9144 29.3809 12.8837 26.9327Z" fill="#343A4B" stroke="#343A4B" stroke-width="0.925925"/>
</svg>
