<svg width="45" height="39" viewBox="0 0 45 39" fill="none" xmlns="http://www.w3.org/2000/svg">
<path d="M36.2595 31.2464L36.2526 31.2465L15.9066 31.2465L15.9058 31.2465M36.2595 31.2464L12.2499 27.7255C12.4025 28.5837 12.8527 29.3606 13.5213 29.9199C14.1899 30.4791 15.0342 30.7849 15.9058 30.7835V31.2465M36.2595 31.2464C37.2099 31.2324 38.1274 30.8961 38.8618 30.2926C39.5955 29.6895 40.103 28.8554 40.3011 27.9266C40.3013 27.9258 40.3015 27.9251 40.3016 27.9243L43.7175 12.553L43.7178 12.5515C43.8513 11.9413 43.8464 11.3089 43.7033 10.7008C43.5602 10.0928 43.2826 9.52455 42.8909 9.03795C42.4992 8.55134 42.0034 8.15873 41.44 7.88902C40.8766 7.61931 40.2599 7.47935 39.6352 7.47942C39.6352 7.47942 39.6352 7.47942 39.6352 7.47942H11.5631L10.8852 4.04286L10.885 4.04145C10.7281 3.2591 10.3058 2.55498 9.68943 2.04825C9.07308 1.54151 8.30058 1.26329 7.50267 1.26067H7.50116H2.37601C1.91341 1.26067 1.46975 1.44444 1.14264 1.77155C0.815532 2.09866 0.631764 2.54232 0.631764 3.00492C0.631764 3.46753 0.815532 3.91118 1.14264 4.23829C1.46975 4.5654 1.91341 4.74917 2.37601 4.74917H7.47175L9.44186 14.7372L11.7941 27.8066C11.7941 27.8068 11.7942 27.807 11.7942 27.8072M36.2595 31.2464L11.7942 27.8072M15.9058 31.2465C14.9256 31.2479 13.9762 30.9039 13.2243 30.275C12.4723 29.6461 11.966 28.7723 11.7942 27.8072M15.9058 31.2465L11.7942 27.8072M15.2253 27.1905L13.1207 15.4868C13.1173 15.3961 13.1067 15.3054 13.0891 15.2158L13.0891 15.2157L12.8956 14.2347L12.3082 10.9686L39.6688 11.0021L39.6699 11.0021C39.7732 11.002 39.8752 11.025 39.9684 11.0696C40.0616 11.1142 40.1436 11.1791 40.2084 11.2595C40.2731 11.34 40.319 11.434 40.3426 11.5345C40.3662 11.635 40.367 11.7394 40.3449 11.8401C40.3448 11.8403 40.3448 11.8404 40.3448 11.8406L36.9282 27.215L36.9274 27.2187C36.8946 27.3722 36.8099 27.5096 36.6876 27.6078C36.5653 27.7061 36.4128 27.7591 36.256 27.758H36.2526H15.9058L15.9053 27.758C15.7434 27.7581 15.5866 27.7014 15.4623 27.5977C15.338 27.4939 15.2541 27.3498 15.2253 27.1905ZM20.2423 36.5638C20.5747 36.0662 20.7522 35.4813 20.7522 34.8829C20.7522 34.0805 20.4334 33.3109 19.866 32.7435C19.2986 32.1761 18.5291 31.8573 17.7266 31.8573C17.1282 31.8573 16.5433 32.0348 16.0457 32.3672C15.5482 32.6997 15.1604 33.1722 14.9314 33.7251C14.7024 34.2779 14.6425 34.8862 14.7592 35.4731C14.876 36.06 15.1641 36.5991 15.5873 37.0223C16.0104 37.4454 16.5495 37.7336 17.1364 37.8503C17.7233 37.967 18.3316 37.9071 18.8845 37.6781C19.4373 37.4491 19.9098 37.0613 20.2423 36.5638ZM37.0675 36.5638C37.3999 36.0662 37.5774 35.4813 37.5774 34.8829C37.5774 34.0805 37.2586 33.3109 36.6912 32.7435C36.1238 32.1761 35.3542 31.8573 34.5518 31.8573C33.9534 31.8573 33.3685 32.0348 32.8709 32.3672C32.3734 32.6997 31.9856 33.1722 31.7566 33.7251C31.5276 34.2779 31.4677 34.8862 31.5844 35.4731C31.7012 36.06 31.9893 36.5991 32.4125 37.0223C32.8356 37.4454 33.3747 37.7336 33.9616 37.8503C34.5485 37.967 35.1568 37.9071 35.7096 37.6781C36.2625 37.4491 36.735 37.0613 37.0675 36.5638Z" fill="#343A4B" stroke="#343A4B" stroke-width="0.925925"/>
</svg>
