<svg width="17" height="14" viewBox="0 0 17 14" fill="none" xmlns="http://www.w3.org/2000/svg">
<path fill-rule="evenodd" clip-rule="evenodd" d="M8.50046 3.37068C10.967 3.37079 13.3393 4.27579 15.1269 5.89865C15.2615 6.02394 15.4766 6.02236 15.6092 5.89511L16.896 4.65504C16.9631 4.5905 17.0005 4.50307 17 4.41211C16.9994 4.32114 16.9609 4.23414 16.893 4.17035C12.2011 -0.123353 4.79908 -0.123353 0.107163 4.17035C0.0391973 4.23409 0.000634479 4.32107 7.75932e-06 4.41203C-0.00061896 4.503 0.0367421 4.59045 0.103824 4.65504L1.39096 5.89511C1.52346 6.02256 1.73878 6.02414 1.87331 5.89865C3.66116 4.27569 6.03367 3.37068 8.50046 3.37068ZM8.49892 7.51267C9.84502 7.51259 11.1431 8.01485 12.1409 8.92187C12.2758 9.05059 12.4884 9.0478 12.62 8.91558L13.8966 7.6207C13.9639 7.55278 14.0012 7.46064 14.0002 7.3649C13.9992 7.26915 13.9601 7.17779 13.8915 7.11126C10.853 4.27395 6.14745 4.27395 3.10894 7.11126C3.0403 7.17779 3.00114 7.2692 3.00024 7.36497C2.99934 7.46075 3.03678 7.55288 3.10415 7.6207L4.38042 8.91558C4.51198 9.0478 4.72457 9.05059 4.85953 8.92187C5.85668 8.01545 7.15371 7.51323 8.49892 7.51267ZM11.0004 10.2544C11.0023 10.3578 10.9655 10.4574 10.8988 10.5299L8.74012 12.9392C8.67684 13.01 8.59057 13.0498 8.50055 13.0498C8.41053 13.0498 8.32426 13.01 8.26098 12.9392L6.10194 10.5299C6.03524 10.4574 5.99855 10.3577 6.00053 10.2543C6.00251 10.1509 6.04298 10.053 6.11239 9.98365C7.491 8.69409 9.5101 8.69409 10.8887 9.98365C10.9581 10.053 10.9985 10.151 11.0004 10.2544Z" fill="#181818"/>
</svg>
