<svg width="301" height="60" viewBox="0 0 301 60" fill="none" xmlns="http://www.w3.org/2000/svg">
<path d="M0.696911 16.3636L23.8258 38.0825L0.5 59.934H12.3271L29.7396 43.6445L47.2176 59.934H59.0453L35.7189 38.0825L58.8478 16.3636H47.0207L29.7396 32.454L12.5245 16.3636H0.696911Z" fill="white"/>
<path d="M99.8485 16.3636C97.1545 16.3636 94.2636 17.0918 91.898 19.1449C89.5984 21.1314 88.0869 24.3758 88.0869 28.1498V48.2138C88.0869 51.9218 89.5984 55.1662 91.898 57.2187C94.2636 59.2053 97.1545 59.934 99.8485 59.934H136.973C139.733 59.934 142.558 59.2053 144.924 57.2187C147.223 55.1662 148.8 51.9218 148.8 48.2138V28.1498C148.8 24.3758 147.223 21.1314 144.924 19.1449C142.558 17.0918 139.733 16.3636 136.973 16.3636H99.8485ZM100.9 23.4485H135.922C137.17 23.4485 138.353 23.8462 139.01 24.4418C139.733 25.038 140.259 25.7662 140.259 27.6867V48.6109C140.259 50.5309 139.733 51.3256 139.01 51.9218C138.353 52.5175 137.17 52.8485 135.922 52.8485H100.9C99.6516 52.8485 98.4691 52.5175 97.8118 51.9218C97.0891 51.3256 96.5633 50.5309 96.5633 48.6109V27.6867C96.5633 25.7662 97.0891 25.038 97.8118 24.4418C98.4691 23.8462 99.6516 23.4485 100.9 23.4485Z" fill="white"/>
<path d="M154.772 16.3636V59.934H163.249V28.0178L204.316 60H211.741V16.3636H203.264V48.2798L162.198 16.3636H154.772Z" fill="white"/>
<path d="M218.362 16.3636V59.934H273.228V52.8485H226.839V41.658H270.402V34.5071H226.839V23.4485H273.228V16.3636H218.362Z" fill="white"/>
<path fill-rule="evenodd" clip-rule="evenodd" d="M279.5 15.2727C278.954 13.9396 278.682 12.4849 278.682 10.9091C278.682 9.33327 278.954 7.87855 279.5 6.54546C280.065 5.21237 280.833 4.06036 281.803 3.09109C282.793 2.10109 283.955 1.34346 285.288 0.81819C286.621 0.272736 288.055 0 289.591 0C291.146 0 292.58 0.272736 293.894 0.81819C295.227 1.34346 296.378 2.10109 297.348 3.09109C298.338 4.06036 299.106 5.21237 299.651 6.54546C300.217 7.87855 300.5 9.33327 300.5 10.9091C300.5 12.4849 300.217 13.9396 299.651 15.2727C299.106 16.6058 298.338 17.7676 297.348 18.7576C296.378 19.7275 295.227 20.4851 293.894 21.0305C292.58 21.5558 291.146 21.8182 289.591 21.8182C288.055 21.8182 286.621 21.5558 285.288 21.0305C283.955 20.4851 282.793 19.7275 281.803 18.7576C280.833 17.7676 280.065 16.6058 279.5 15.2727ZM294.318 16.9696H292.409L288.867 11.8789H287.318V16.9696H285.773V4.24255H289.227C290.46 4.24255 291.489 4.58564 292.318 5.27292C293.147 5.95964 293.561 6.88908 293.561 8.06072C293.561 9.23236 293.147 10.1618 292.318 10.8485C291.799 11.2784 291.201 11.574 290.525 11.7349L294.318 16.9696ZM289.227 5.60619C290.055 5.60619 290.722 5.81837 291.227 6.24219C291.752 6.66655 292.015 7.27254 292.015 8.06072C292.015 8.84836 291.752 9.45436 291.227 9.87873C290.722 10.3031 290.055 10.5153 289.227 10.5153H287.318V5.60619H289.227Z" fill="white"/>
<path d="M65.9541 33.2706H76.8632V43.0888H65.9541V33.2706Z" fill="white"/>
</svg>
