<svg width="244" height="50" viewBox="0 0 244 50" fill="none" xmlns="http://www.w3.org/2000/svg">
<path d="M0.161443 13.5L19.1243 30.9468L0 48.5H9.69677L23.9729 35.4147L38.3028 48.5H48L28.8752 30.9468L47.8381 13.5H38.1413L23.9729 26.4254L9.85867 13.5H0.161443Z" fill="black"/>
<path d="M80.6862 13.5C78.4676 13.5 76.0868 14.0849 74.1386 15.7342C72.2447 17.33 71 19.9362 71 22.9678V39.0852C71 42.0638 72.2447 44.67 74.1386 46.3188C76.0868 47.9146 78.4676 48.5 80.6862 48.5H111.26C113.532 48.5 115.859 47.9146 117.808 46.3188C119.701 44.67 121 42.0638 121 39.0852V22.9678C121 19.9362 119.701 17.33 117.808 15.7342C115.859 14.0849 113.532 13.5 111.26 13.5H80.6862ZM81.5523 19.1913H110.394C111.422 19.1913 112.396 19.5107 112.937 19.9892C113.532 20.4681 113.965 21.0531 113.965 22.5958V39.4042C113.965 40.9465 113.532 41.5849 112.937 42.0638C112.396 42.5423 111.422 42.8083 110.394 42.8083H81.5523C80.524 42.8083 79.5501 42.5423 79.0089 42.0638C78.4137 41.5849 77.9806 40.9465 77.9806 39.4042V22.5958C77.9806 21.0531 78.4137 20.4681 79.0089 19.9892C79.5501 19.5107 80.524 19.1913 81.5523 19.1913Z" fill="black"/>
<path d="M125 13.5V48.4471H131.993V22.8476L165.874 48.5H172V13.5H165.007V39.0994L131.126 13.5H125Z" fill="black"/>
<path d="M177 13.5V48.5H222V42.8083H183.952V33.8189H219.683V28.0746H183.952V19.1913H222V13.5H177Z" fill="black"/>
<path fill-rule="evenodd" clip-rule="evenodd" d="M226.675 12.4C226.225 11.3613 226 10.2278 226 9C226 7.77217 226.225 6.6387 226.675 5.6C227.142 4.5613 227.775 3.6637 228.575 2.90847C229.392 2.1371 230.35 1.54678 231.45 1.13751C232.55 0.712506 233.733 0.5 235 0.5C236.283 0.5 237.466 0.712506 238.55 1.13751C239.65 1.54678 240.6 2.1371 241.4 2.90847C242.217 3.6637 242.85 4.5613 243.3 5.6C243.766 6.6387 244 7.77217 244 9C244 10.2278 243.766 11.3613 243.3 12.4C242.85 13.4387 242.217 14.344 241.4 15.1153C240.6 15.871 239.65 16.4613 238.55 16.8863C237.466 17.2956 236.283 17.5 235 17.5C233.733 17.5 232.55 17.2956 231.45 16.8863C230.35 16.4613 229.392 15.871 228.575 15.1153C227.775 14.344 227.142 13.4387 226.675 12.4ZM238.9 13.7222H237.325L234.403 9.75565H233.125V13.7222H231.85V3.80566H234.7C235.717 3.80566 236.566 4.07298 237.25 4.60848C237.934 5.14356 238.275 5.86774 238.275 6.78064C238.275 7.69354 237.934 8.41775 237.25 8.95282C236.822 9.28772 236.329 9.51808 235.77 9.64346L238.9 13.7222ZM234.7 4.86816C235.383 4.86816 235.933 5.03348 236.35 5.36371C236.783 5.69436 237 6.16652 237 6.78064C237 7.39434 236.783 7.86653 236.35 8.19718C235.933 8.52783 235.383 8.69315 234.7 8.69315H233.125V4.86816H234.7Z" fill="black"/>
<path d="M53 27.5H62V35.5H53V27.5Z" fill="black"/>
</svg>
